<?xml version="1.0" encoding="utf-8"?>
<!-- Generator: Adobe Illustrator 25.2.0, SVG Export Plug-In . SVG Version: 6.00 Build 0)  -->
<svg version="1.1" id="Layer_1" xmlns="http://www.w3.org/2000/svg" xmlns:xlink="http://www.w3.org/1999/xlink" x="0px" y="0px"
	 viewBox="0 0 172 172" style="enable-background:new 0 0 172 172;" xml:space="preserve">
<style type="text/css">
	.st0{fill:#2FAC66;}
</style>
<g>
	<path class="st0" d="M38.45,103.26c-9.22-13.24-12.4-27.71-9.53-43.41c2.86-15.7,10.85-28.12,23.97-37.25
		c13.11-9.13,27.56-12.34,43.34-9.63c15.78,2.71,28.28,10.69,37.51,23.93c9.13,13.11,12.23,27.54,9.3,43.28
		c-2.93,15.74-10.95,28.19-24.06,37.32c-13.11,9.13-27.53,12.32-43.25,9.56C60.01,124.31,47.58,116.37,38.45,103.26z M50.62,63.74
		c-1.69,9.78,0.3,18.75,5.97,26.89c5.67,8.14,13.39,13.12,23.15,14.92c9.76,1.8,18.72-0.13,26.86-5.81
		c8.15-5.67,13.07-13.4,14.76-23.18c1.69-9.78-0.3-18.75-5.97-26.89c-5.76-8.28-13.5-13.28-23.22-15.02s-18.65,0.23-26.8,5.9
		C57.24,46.23,52.31,53.95,50.62,63.74z"/>
	<path class="st0" d="M109.99,132.04L86,164.73l-23.83-32.45c3.8,1.38,7.82,2.45,12.04,3.19C86.87,137.7,98.79,136.55,109.99,132.04
		z"/>
</g>
</svg>
