<?xml version="1.0" encoding="utf-8"?>
<!-- Generator: Adobe Illustrator 19.0.0, SVG Export Plug-In . SVG Version: 6.00 Build 0)  -->
<svg version="1.1" id="Layer_1" xmlns="http://www.w3.org/2000/svg" xmlns:xlink="http://www.w3.org/1999/xlink" x="0px" y="0px"
	 viewBox="0 0 172 172" style="enable-background:new 0 0 172 172;" xml:space="preserve">
<style type="text/css">
	.st0{fill:#31AC66;}
</style>
<g id="XMLID_116_">
	<g id="XMLID_123_">
		<path id="XMLID_124_" class="st0" d="M102.4,119.5c-26.8,0.2-48.6-21.3-48.8-48.1c0-0.2,0-0.5,0-0.7c-0.2-12.9,4.9-25.4,14.2-34.4
			c18.7-18.9,49.2-19.1,68.2-0.4c0.1,0.1,0.3,0.3,0.4,0.4c18.8,19,18.8,49.7,0,68.7C127.5,114.3,115.3,119.5,102.4,119.5z
			 M81.1,92.2c11.9,11.6,30.8,11.6,42.7,0c11.8-11.5,12-30.4,0.5-42.2c-0.2-0.2-0.3-0.3-0.5-0.5C112.1,37.7,93,37.6,81.2,49.3
			c-5.7,5.7-8.9,13.3-8.9,21.4c-0.1,8,3.1,15.7,8.8,21.2V92.2z"/>
	</g>
	<g id="XMLID_121_">
		<path id="XMLID_16_" class="st0" d="M102.4,44.6c13.6,0.7,24.8,10.9,26.8,24.4c0,1.2,0,2.4,0,3.7s-0.6,2.2-1.8,2.2
			c-1.2,0-1.8-0.7-1.9-2.1c-0.1-9.3-5.4-17.7-13.8-21.8c-3.3-1.7-6.9-2.5-10.6-2.6c-1.3,0-2.1-0.7-2.1-1.8c-0.1-0.9,0.5-1.7,1.5-1.8
			c0,0,0.1,0,0.1,0L102.4,44.6z"/>
	</g>
	<g id="XMLID_119_">
		<path id="XMLID_15_" class="st0" d="M81.9,101.2l-18.3,18.3c0.6-5.8-3.6-11.1-9.4-11.7c-0.8-0.1-1.6-0.1-2.4,0l18.3-18.3
			L81.9,101.2z"/>
	</g>
	<g id="XMLID_117_">
		<path id="XMLID_14_" class="st0" d="M32.2,150.1c-2.7,0-5.5-1-7.6-3.1c-4.2-4.2-4.2-10.9,0-15.1l17.9-17.9
			c4.2-4.2,10.9-4.2,15.1,0c4.2,4.2,4.2,10.9,0,15.1l-17.9,17.9C37.7,149,34.9,150.1,32.2,150.1z"/>
	</g>
</g>
<g id="XMLID_19_">
</g>
<g id="XMLID_20_">
</g>
<g id="XMLID_21_">
</g>
<g id="XMLID_101_">
</g>
<g id="XMLID_102_">
</g>
<g id="XMLID_173_">
</g>
</svg>
